<svg xmlns="http://www.w3.org/2000/svg" viewBox="0 0 24 24"><defs><style>.skinbaseDark{opacity:0.7;fill:#444;fill-rule:evenodd;}.skinthemeDark{fill:#5789d9;fill-rule:evenodd;}</style></defs><title>删除空行</title><path class="skinbaseDark" d="M4,7H20a1,1,0,0,1,0,2H4A1,1,0,0,1,4,7Z"/><path class="skinbaseDark" d="M4,12H20a1,1,0,0,1,0,2H4a1,1,0,0,1,0-2Z"/><path class="skinbaseDark" d="M4,17H20a1,1,0,0,1,0,2H4a1,1,0,0,1,0-2Z"/><path class="skinthemeDark" d="M20,5.5a.5.5,0,0,1-.35-.15L17,2.71,14.35,5.35a.5.5,0,0,1-.7-.7L16.29,2,13.65.65a.5.5,0,0,1,.7-.7L17,1.29,19.65.65a.5.5,0,0,1,.7.7L17.71,2,20,4.35A.5.5,0,0,1,20,5.5Z"/></svg>
