<svg xmlns="http://www.w3.org/2000/svg" viewBox="0 0 24 24"><defs><style>.skinbaseDark{opacity:0.7;fill:#444;fill-rule:evenodd;}.skinthemeDark{fill:#5789d9;fill-rule:evenodd;}</style></defs><title>标题换行</title><path class="skinthemeDark" d="M10,7H21a1,1,0,0,1,0,2H10a1,1,0,0,1,0-2Z"/><path class="skinthemeDark" d="M3,12H21a1,1,0,0,1,0,2H3a1,1,0,0,1,0-2Z"/><path class="skinbaseDark" d="M12,17H21a1,1,0,0,1,0,2H12a1,1,0,0,1,0-2Z"/><path class="skinthemeDark" d="M3,3.5A.5.5,0,0,1,3.5,3h4a.5.5,0,0,1,0,1H4.71L7.35,6.65a.5.5,0,0,1-.7.7L3.5,4.29l-.15.21A.5.5,0,0,1,3,3.5Z"/></svg>
