<svg xmlns="http://www.w3.org/2000/svg" viewBox="0 0 24 24"><defs><style>.skinbaseDark{opacity:0.7;fill:#444;fill-rule:evenodd;}.skinthemeDark{fill:#5789d9;fill-rule:evenodd;}</style></defs><title>检查更新</title><path class="skinthemeDark" d="M12,21a8,8,0,0,1-8-8,7.94,7.94,0,0,1,3.31-6.43.5.5,0,0,1,.59.8A6.94,6.94,0,0,0,5,13a7,7,0,0,0,14,0,6.94,6.94,0,0,0-2.9-5.63.5.5,0,0,1,.59-.8A7.94,7.94,0,0,1,20,13,8,8,0,0,1,12,21Z"/><path class="skinbaseDark" d="M12,12.5a.5.5,0,0,1-.5-.5V4a.5.5,0,0,1,1,0v8A.5.5,0,0,1,12,12.5Z"/><path class="skinbaseDark" d="M10,6.5a.5.5,0,0,1-.35-.85l2-2a.5.5,0,0,1,.7,0l2,2a.5.5,0,0,1-.7.7L12,4.71,10.35,6.35A.5.5,0,0,1,10,6.5Z"/></svg>
